<mxfile host="app.diagrams.net" agent="Mozilla/5.0 (Windows NT 10.0; Win64; x64) AppleWebKit/537.36 (KHTML, like Gecko) Chrome/129.0.0.0 Safari/537.36" version="24.8.1">
  <diagram name="1 oldal" id="IhlfHFgYTjoIi35J5o37">
    <mxGraphModel dx="819" dy="426" grid="1" gridSize="10" guides="1" tooltips="1" connect="1" arrows="1" fold="1" page="1" pageScale="1" pageWidth="827" pageHeight="1169" math="0" shadow="0">
      <root>
        <mxCell id="0" />
        <mxCell id="1" parent="0" />
        <mxCell id="beBUeoCKw6e9bjog4ek8-1" value="" style="whiteSpace=wrap;html=1;aspect=fixed;fillColor=#fff2cc;strokeColor=#d6b656;" vertex="1" parent="1">
          <mxGeometry x="359" y="320" width="110" height="110" as="geometry" />
        </mxCell>
        <mxCell id="beBUeoCKw6e9bjog4ek8-2" value="" style="html=1;shadow=0;dashed=0;align=center;verticalAlign=middle;shape=mxgraph.arrows2.twoWayArrow;dy=0.6;dx=35;rotation=-90;" vertex="1" parent="1">
          <mxGeometry x="355" y="245" width="110" height="40" as="geometry" />
        </mxCell>
        <mxCell id="beBUeoCKw6e9bjog4ek8-3" value="" style="html=1;shadow=0;dashed=0;align=center;verticalAlign=middle;shape=mxgraph.arrows2.twoWayArrow;dy=0.54;dx=33;rotation=-180;" vertex="1" parent="1">
          <mxGeometry x="249" y="355" width="110" height="40" as="geometry" />
        </mxCell>
        <mxCell id="beBUeoCKw6e9bjog4ek8-5" value="STM32F413ZH" style="text;html=1;align=center;verticalAlign=middle;resizable=0;points=[];autosize=1;strokeColor=none;fillColor=none;" vertex="1" parent="1">
          <mxGeometry x="355" y="360" width="110" height="30" as="geometry" />
        </mxCell>
        <mxCell id="beBUeoCKw6e9bjog4ek8-6" value="" style="whiteSpace=wrap;html=1;aspect=fixed;" vertex="1" parent="1">
          <mxGeometry x="370" y="130" width="80" height="80" as="geometry" />
        </mxCell>
        <mxCell id="beBUeoCKw6e9bjog4ek8-7" value="NFC&lt;div&gt;&lt;br&gt;&lt;div&gt;PN532&lt;/div&gt;&lt;/div&gt;" style="text;html=1;align=center;verticalAlign=middle;resizable=0;points=[];autosize=1;strokeColor=none;fillColor=none;" vertex="1" parent="1">
          <mxGeometry x="380" y="140" width="60" height="60" as="geometry" />
        </mxCell>
        <mxCell id="beBUeoCKw6e9bjog4ek8-8" value="" style="whiteSpace=wrap;html=1;aspect=fixed;" vertex="1" parent="1">
          <mxGeometry x="169" y="335" width="80" height="80" as="geometry" />
        </mxCell>
        <mxCell id="beBUeoCKw6e9bjog4ek8-9" value="ESP-01&lt;div&gt;Module&lt;/div&gt;" style="text;html=1;align=center;verticalAlign=middle;resizable=0;points=[];autosize=1;strokeColor=none;fillColor=none;" vertex="1" parent="1">
          <mxGeometry x="179" y="355" width="60" height="40" as="geometry" />
        </mxCell>
        <mxCell id="beBUeoCKw6e9bjog4ek8-10" value="" style="whiteSpace=wrap;html=1;aspect=fixed;" vertex="1" parent="1">
          <mxGeometry x="570" y="335" width="80" height="80" as="geometry" />
        </mxCell>
      </root>
    </mxGraphModel>
  </diagram>
</mxfile>
